<svg width="90" height="91" viewBox="0 0 90 91" fill="none" xmlns="http://www.w3.org/2000/svg">
<path d="M67.5 27L85 27C87.4853 27 89.5 24.9853 89.5 22.5C89.5 20.0147 87.4853 18 85 18L67.5 18C65.0147 18 63 20.0147 63 22.5C63 24.9853 65.0147 27 67.5 27Z" fill="#FACE48"/>
<path d="M67 44C79.5 44 85 34.5 85 34.5L67 34.5C63.8418 34.5 60.6074 34.2478 58.249 32.3613C56.0766 30.6234 54 27.4078 54 21C54 16.7468 56.0369 13.8808 58.7969 11.916C61.7289 9.82883 65.1935 9 67 9L85 9C87.4853 9 89.5 6.98528 89.5 4.5C89.5 2.01472 87.4853 8.80661e-08 85 1.96701e-07L67 9.83506e-07C63.3066 1.14495e-06 58.0211 1.42128 53.5781 4.58399C48.9632 7.8692 45 13.2534 45 21C45 29.592 47.9236 35.6266 52.626 39.3887C57.1426 43.0019 63 44 67 44Z" fill="#FACE48"/>
<path d="M17 22V4.5C17 2.01472 19.0147 0 21.5 0C23.9853 0 26 2.01472 26 4.5V22C26 24.4853 23.9853 26.5 21.5 26.5C19.0147 26.5 17 24.4853 17 22Z" fill="#C02B2D"/>
<path d="M0 22.5C0 10 9.5 4.5 9.5 4.5V22.5C9.5 25.6582 9.75216 28.8926 11.6387 31.251C13.3766 33.4234 16.5922 35.5 23 35.5C27.2532 35.5 30.1192 33.4631 32.084 30.7031C34.1712 27.7711 35 24.3065 35 22.5V4.5C35 2.01472 37.0147 0 39.5 0C41.9853 0 44 2.01472 44 4.5V22.5C44 26.1934 42.5787 31.4789 39.416 35.9219C36.1308 40.5368 30.7466 44.5 23 44.5C14.408 44.5 8.3734 41.5764 4.61133 36.874C0.998055 32.3574 0 26.5 0 22.5Z" fill="#C02B2D"/>
<path d="M62 69L62 86.5C62 88.9853 64.0147 91 66.5 91C68.9853 91 71 88.9853 71 86.5L71 69C71 66.5147 68.9853 64.5 66.5 64.5C64.0147 64.5 62 66.5147 62 69Z" fill="black"/>
<path d="M45 68.5C45 81 54.5 86.5 54.5 86.5L54.5 68.5C54.5 65.3418 54.7522 62.1074 56.6387 59.749C58.3766 57.5766 61.5922 55.5 68 55.5C72.2532 55.5 75.1192 57.5369 77.084 60.2969C79.1712 63.2289 80 66.6935 80 68.5L80 86.5C80 88.9853 82.0147 91 84.5 91C86.9853 91 89 88.9853 89 86.5L89 68.5C89 64.8066 87.5787 59.5211 84.416 55.0781C81.1308 50.4632 75.7466 46.5 68 46.5C59.408 46.5 53.3734 49.4236 49.6113 54.126C45.9981 58.6426 45 64.5 45 68.5Z" fill="black"/>
<path d="M22 73H4.5C2.01472 73 0 70.9853 0 68.5C0 66.0147 2.01472 64 4.5 64H22C24.4853 64 26.5 66.0147 26.5 68.5C26.5 70.9853 24.4853 73 22 73Z" fill="#175EAD"/>
<path d="M22.5 90C10 90 4.5 80.5 4.5 80.5H22.5C25.6582 80.5 28.8926 80.2478 31.251 78.3613C33.4234 76.6234 35.5 73.4078 35.5 67C35.5 62.7468 33.4631 59.8808 30.7031 57.916C27.7711 55.8288 24.3065 55 22.5 55H4.5C2.01472 55 0 52.9853 0 50.5C0 48.0147 2.01472 46 4.5 46H22.5C26.1934 46 31.4789 47.4213 35.9219 50.584C40.5368 53.8692 44.5 59.2534 44.5 67C44.5 75.592 41.5764 81.6266 36.874 85.3887C32.3574 89.0019 26.5 90 22.5 90Z" fill="#175EAD"/>
</svg>
